<svg width="18" height="22" viewBox="0 0 18 22" fill="none"
    xmlns="http://www.w3.org/2000/svg">
    <path d="M10.999 0.749806C10.999 0.423786 10.7884 0.135106 10.4779 0.0355963C10.1675 -0.0639107 9.82833 0.0485462 9.63873 0.313826L0.138766 13.6112C-0.0245543 13.8398 -0.0464141 14.1405 0.0821359 14.3903C0.210686 14.6401 0.468076 14.7971 0.749026 14.7971H6.99903V21.2499C6.99903 21.5769 7.21093 21.8662 7.52263 21.9649C7.83443 22.0636 8.17423 21.9489 8.36243 21.6815L17.8624 8.18143C18.0235 7.95245 18.0437 7.65279 17.9147 7.40428C17.7857 7.15577 17.529 6.99981 17.249 6.99981H10.999V0.749806Z" fill="white"/>
</svg>
